<?xml version="1.0" encoding="UTF-8" standalone="no"?>
<svg
   xmlns:dc="http://purl.org/dc/elements/1.1/"
   xmlns:cc="http://creativecommons.org/ns#"
   xmlns:rdf="http://www.w3.org/1999/02/22-rdf-syntax-ns#"
   xmlns:svg="http://www.w3.org/2000/svg"
   xmlns="http://www.w3.org/2000/svg"
   enable-background="new"
   id="svg2"
   height="14"
   width="14"
   version="1.1">
  <metadata
     id="metadata9">
    <rdf:RDF>
      <cc:Work
         rdf:about="">
        <dc:format>image/svg+xml</dc:format>
        <dc:type
           rdf:resource="http://purl.org/dc/dcmitype/StillImage" />
        <dc:title></dc:title>
      </cc:Work>
    </rdf:RDF>
  </metadata>
  <defs
     id="defs7" />
  <rect
     style="visibility:hidden;fill:none;stroke:none"
     id="canvas"
     y="2"
     x="0"
     height="12"
     width="12" />
  <g
     style="display:inline;"
     id="layer1">
    <path
       d="m 1,4 -1,1 0,8.000001 0.65625,0 c 0,0 0.1011489,1 0.81275,1 0.6891295,0 0.781,-1 0.781,-1 l 3.5,0 c 0,0 0.1143421,1 0.781,1 0.8164686,0 0.81275,-1 0.81275,-1 L 8,13.000001 8,5 7,4 Z M 2,5 6,5 6,6 2,6 Z m -1,2 6,0 0,3.000001 -6,0 z m 0,4 1,0 0,1 -1,0 z m 5,0 1,0 0,1 -1,0 z M 7,0 6,1 6,2.9765625 13,3 13,6 9.0234375,6 8.9921875,9 11.75,9 c 0.05721,0.422448 0.275395,0.992265 0.78125,1 0.530261,0.03017 0.825431,-0.535533 0.8125,-1 L 14,9 14,1 13,0 Z m 1,1 4,0 0,1 -4,0 z m 4,6 1,0 0,1 -1,0 z"
       style="display:inline;fill:#000000;fill-opacity:1;stroke:none"
       id="bus-stop" />
  </g>
</svg>
