<?xml version="1.0" encoding="UTF-8" standalone="no"?>
<svg
   xmlns:dc="http://purl.org/dc/elements/1.1/"
   xmlns:cc="http://creativecommons.org/ns#"
   xmlns:rdf="http://www.w3.org/1999/02/22-rdf-syntax-ns#"
   xmlns:svg="http://www.w3.org/2000/svg"
   xmlns="http://www.w3.org/2000/svg"
   version="1.1"
   width="14"
   height="14"
   id="svg2">
  <metadata
     id="metadata9">
    <rdf:RDF>
      <cc:Work
         rdf:about="">
        <dc:format>image/svg+xml</dc:format>
        <dc:type
           rdf:resource="http://purl.org/dc/dcmitype/StillImage" />
        <dc:title></dc:title>
      </cc:Work>
    </rdf:RDF>
  </metadata>
  <defs
     id="defs7" />
  <rect
     width="12"
     height="12"
     x="0"
     y="2"
     id="canvas"
     style="visibility:hidden;fill:none;stroke:none" />
  <g
     id="layer2"
     style="display:inline">
    <path
       style="opacity:1;fill:#000000;fill-opacity:1;stroke:none"
       d="m 0,0 0,14 14,0 0,-14 z m 4,2 6,0 1,1 0,8 -0.65625,0 c 0,0 0.0039,1 -0.8125,1 C 8.8645921,12 8.75,11 8.75,11 l -3.5,0 c 0,0 -0.09212,1 -0.78125,1 -0.7116011,0 -0.8125,-1 -0.8125,-1 L 3,11 3,3 Z M 5,3 5,4 9,4 9,3 Z m -1,2 0,3 6,0 0,-3 z m 0,4 0,1 1,0 0,-1 z m 5,0 0,1 1,0 0,-1 z"
       id="bus-stop" />
  </g>
</svg>
