<?xml version="1.0" encoding="UTF-8" standalone="no"?>
<svg
   xmlns:dc="http://purl.org/dc/elements/1.1/"
   xmlns:cc="http://creativecommons.org/ns#"
   xmlns:rdf="http://www.w3.org/1999/02/22-rdf-syntax-ns#"
   xmlns:svg="http://www.w3.org/2000/svg"
   xmlns="http://www.w3.org/2000/svg"
   height="14"
   width="14"
   version="1.0"
   viewBox="0 0 14 14.000001"
   id="svg2">
  <defs
     id="defs58" />
  <metadata
     id="metadata54">
    <rdf:RDF>
      <cc:Work>
        <dc:format>image/svg+xml</dc:format>
        <dc:type
           rdf:resource="http://purl.org/dc/dcmitype/StillImage" />
        <cc:license
           rdf:resource="http://creativecommons.org/publicdomain/zero/1.0/" />
        <dc:publisher>
          <cc:Agent
             rdf:about="http://openclipart.org/">
            <dc:title>Openclipart</dc:title>
          </cc:Agent>
        </dc:publisher>
        <dc:title></dc:title>
        <dc:date>2010-04-15T15:08:15</dc:date>
        <dc:description />
        <dc:source>https://openclipart.org/detail/48169/lobster-by-hextrust</dc:source>
        <dc:creator>
          <cc:Agent>
            <dc:title>hextrust</dc:title>
          </cc:Agent>
        </dc:creator>
        <dc:subject>
          <rdf:Bag>
            <rdf:li>crustacean</rdf:li>
            <rdf:li>delicious</rdf:li>
            <rdf:li>fish</rdf:li>
            <rdf:li>healthy</rdf:li>
            <rdf:li>kitchen</rdf:li>
            <rdf:li>snack</rdf:li>
          </rdf:Bag>
        </dc:subject>
      </cc:Work>
      <cc:License
         rdf:about="http://creativecommons.org/publicdomain/zero/1.0/">
        <cc:permits
           rdf:resource="http://creativecommons.org/ns#Reproduction" />
        <cc:permits
           rdf:resource="http://creativecommons.org/ns#Distribution" />
        <cc:permits
           rdf:resource="http://creativecommons.org/ns#DerivativeWorks" />
      </cc:License>
    </rdf:RDF>
  </metadata>
  <path
     id="path4168"
     d="M 4,3 C 3.9999999,4.4337762 3.2226829,4.325787 2.787153,4.8865647 2.6151545,5.1080257 2.4964612,5.4337876 2.5,6 l 9,0 -0.129466,6.000001 -8.6703226,0 L 2.53125,11 C 2.4897231,10.754222 2.625213,11.672938 2.7002114,12.000001 2.9260944,12.985064 3.4985239,14 5,14 l 4,0 c 1.592451,0 2.233939,-1.26795 2.429252,-2.289489 C 11.479238,11.449073 11.5,11.203775 11.5,11 l 0,-5 C 11.5,5.4550497 11.388636,5.1328276 11.226596,4.9119578 10.793938,4.3222224 10,4.4550494 10,3 Z"
     style="opacity:1;fill:#000000;fill-opacity:1;fill-rule:evenodd;stroke:none;stroke-opacity:1" />
  <path
     id="path4173"
     d="M 5.9999999,0 8,0 c 2,0 3,0 3,1.0000001 l 0,1 -8.0000003,0 0,-1 C 2.9999997,-4.0395351e-8 3.9999998,0 5.9999999,0 Z"
     style="opacity:1;fill:#000000;fill-opacity:1;fill-rule:evenodd;stroke:none;stroke-opacity:1" />
  <path
     id="path4158"
     d="M -4.450581e-7,7.0000004 1.3359371,8.5000006 -4.450581e-7,10.000001 l 2.6718750450581,0 0,-3.0000006 z"
     style="opacity:1;fill:#000000;fill-opacity:1;fill-rule:evenodd;stroke:none;stroke-opacity:1" />
  <path
     id="path4160"
     d="m 14,7.0000004 -2.553944,0 0,3.0000006 2.553944,0 -1.276972,-1.5000004 z"
     style="opacity:1;fill:#000000;fill-opacity:1;fill-rule:evenodd;stroke:none;stroke-opacity:1" />
  <rect
     y="8.000001"
     x="2.9999995"
     height="3.0000005"
     width="8.000001"
     id="rect4162"
     style="opacity:1;fill:#000000;fill-opacity:1;fill-rule:evenodd;stroke:none;stroke-opacity:1" />
</svg>
