<?xml version="1.0" encoding="UTF-8" standalone="no"?>
<svg
   xmlns:dc="http://purl.org/dc/elements/1.1/"
   xmlns:cc="http://creativecommons.org/ns#"
   xmlns:rdf="http://www.w3.org/1999/02/22-rdf-syntax-ns#"
   xmlns:svg="http://www.w3.org/2000/svg"
   xmlns="http://www.w3.org/2000/svg"
   id="svg2"
   viewBox="0 0 13.999999 14"
   version="1.0"
   width="14"
   height="14">
  <defs
     id="defs58" />
  <metadata
     id="metadata54">
    <rdf:RDF>
      <cc:Work>
        <dc:format>image/svg+xml</dc:format>
        <dc:type
           rdf:resource="http://purl.org/dc/dcmitype/StillImage" />
        <cc:license
           rdf:resource="http://creativecommons.org/publicdomain/zero/1.0/" />
        <dc:publisher>
          <cc:Agent
             rdf:about="http://openclipart.org/">
            <dc:title>Openclipart</dc:title>
          </cc:Agent>
        </dc:publisher>
        <dc:title></dc:title>
        <dc:date>2010-04-15T15:08:15</dc:date>
        <dc:description />
        <dc:source>https://openclipart.org/detail/48169/lobster-by-hextrust</dc:source>
        <dc:creator>
          <cc:Agent>
            <dc:title>hextrust</dc:title>
          </cc:Agent>
        </dc:creator>
        <dc:subject>
          <rdf:Bag>
            <rdf:li>crustacean</rdf:li>
            <rdf:li>delicious</rdf:li>
            <rdf:li>fish</rdf:li>
            <rdf:li>healthy</rdf:li>
            <rdf:li>kitchen</rdf:li>
            <rdf:li>snack</rdf:li>
          </rdf:Bag>
        </dc:subject>
      </cc:Work>
      <cc:License
         rdf:about="http://creativecommons.org/publicdomain/zero/1.0/">
        <cc:permits
           rdf:resource="http://creativecommons.org/ns#Reproduction" />
        <cc:permits
           rdf:resource="http://creativecommons.org/ns#Distribution" />
        <cc:permits
           rdf:resource="http://creativecommons.org/ns#DerivativeWorks" />
      </cc:License>
    </rdf:RDF>
  </metadata>
  <path
     style="fill:#000000;fill-opacity:1;stroke:none;stroke-width:21.26000023;stroke-linecap:round"
     d="M 8.926398,4.9813021e-5 C 8.133369,0.00614982 7.3601595,0.29077582 6.5996107,0.75509482 6.2051953,1.0288169 5.9202388,1.4059509 6.0620249,1.8377469 c 0.2251467,0.685998 1.1375132,1.384455 1.4474061,1.073108 l 0.027344,-0.02451 c 0.041507,0.02721 0.091257,0.04998 0.1501319,0.06655 1.1521713,0.328805 2.8255191,0.279759 3.7140881,-1.472429 -1.298812,1.031015 -2.1844337,1.178432 -2.7243007,0.586341 -0.039246,-0.03424 -0.078289,-0.06554 -0.1168552,-0.09416 l 0.055719,-0.04979 C 9.3962825,1.4167909 10.406529,1.1463629 11.896276,1.3685199 10.869417,0.39114382 9.8835018,-0.00732418 8.926398,4.9813021e-5 Z M 4.6749811,1.4299149 c -1.0074968,0.708547 -1.3119956,2.153528 -0.8409452,3.261887 0.1561485,0.363987 0.3850093,0.690181 0.5587385,1.045764 0.1148266,0.200691 0.2555554,0.421364 0.4374979,0.579633 -0.090794,0.09076 -0.1791646,0.182847 -0.2654395,0.276016 -0.012655,-0.0037 -0.025523,-0.0077 -0.038178,-0.01135 C 4.1417584,6.4876799 3.7434667,6.3734159 3.4512251,6.0889059 2.8439261,5.5013549 2.6372237,4.6516169 2.3360699,3.8905819 2.2427739,3.7634759 2.2044461,3.3304639 2.0394174,3.4417339 c -0.2345977,0.381173 -0.057055,0.851553 0.1160813,1.220402 0.191155,0.346526 0.3263538,0.721438 0.5344905,1.058405 0.3555969,0.571379 0.9364925,1.004842 1.5820605,1.203377 C 4.0538941,7.1819059 3.8522511,7.4474109 3.6673945,7.7189469 3.1739172,7.3201379 2.8530895,6.7172249 2.2816406,6.4092909 2.1072353,6.3011849 1.8881762,6.3366559 1.7040712,6.2472929 1.0997314,6.0348119 0.66677088,5.4343059 0.66681935,4.7918899 c -0.2067511,0.310706 -0.23363059,0.728137 -0.0580407,1.05892 0.25756081,0.495735 0.75091585,0.829108 1.26425545,1.018679 0.1630193,0.04397 0.3220601,0.101158 0.4457526,0.22236 0.3837417,0.316907 0.6870341,0.731011 1.1019994,1.008872 -0.079373,0.12973 -0.1547963,0.26059 -0.2267457,0.39236 -0.2827216,-0.22217 -0.5479132,-0.3841 -0.6944248,-0.35805 l -0.8406872,0.14962 c -0.2246399,0.04 0.0307,0.65766 0.3526295,1.14559 -0.1995112,-0.1311 -0.3782309,-0.21056 -0.4937329,-0.18237 l -0.85900238,0.20972 c -0.25528368,0.0623 0.0382746,0.8013991 0.37532988,1.2784391 -0.12466251,-0.0577 -0.23994922,-0.0817 -0.33225078,-0.0552 l -0.7019055346975,0.20172 0,0.59898 L 2.5310866,14 l 0.4960546,0 0.211526,-0.71455 c 0.028679,-0.0969 -0.030029,-0.24709 -0.1313009,-0.41454 0.4610057,0.35749 1.1820401,0.69295 1.2562586,0.43931 l 0.256669,-0.8768 c 0.032005,-0.10938 0.00245,-0.24988 -0.067585,-0.40371 0.4621848,0.32307 1.0162996,0.57791 1.0645954,0.3645 l 0.1945008,-0.85849 c 0.045105,-0.19931 -0.1297165,-0.52104 -0.3817788,-0.84198 0.1754391,-0.0905 0.3489174,-0.18729 0.5203026,-0.29097 0.1637642,0.22614 0.2690225,0.49489 0.2925252,0.77697 0.040039,0.20069 -0.049274,0.40372 0.01135,0.59975 0.1836687,0.75284 0.8641892,1.26605 1.0382836,2.0224 0.020579,0.0532 0.017303,0.13927 0.027086,0.19811 l 0.1470364,0 C 7.655723,13.87963 7.7038809,13.62703 7.6397004,13.42217 7.4917829,12.89944 7.1318752,12.47485 6.905292,11.98766 6.819207,11.8374 6.8037937,11.66896 6.8023665,11.50012 6.7557885,11.03021 6.6017678,10.5477 6.29393,10.18376 6.4643063,10.06982 6.6326397,9.9490209 6.798755,9.8210709 6.9141208,10.10948 7.011922,10.40503 7.15577,10.68085 7.716276,11.74676 9.0280601,12.42507 10.214128,12.09291 9.769956,12.00181 9.3483216,11.8317 8.9251084,11.67347 8.5480548,11.55162 8.158956,11.40859 7.8881145,11.10364 7.4932976,10.66188 7.3043601,10.10582 7.1420981,9.5437609 c 0.1437996,-0.12155 0.2860118,-0.24867 0.4264057,-0.38152 0.4932181,0.67334 1.3138343,1.1159591 2.1487957,1.1515291 0.3957605,0.0155 0.7885535,-0.0507 1.1842885,-0.0547 0.406309,-0.0306 0.903267,-0.10743 1.119798,-0.4991491 0.01573,-0.19841 -0.379999,-0.0189 -0.536554,-0.0377 -0.810751,0.11203 -1.6524854,0.3497491 -2.4627311,0.10989 -0.391445,-0.11455 -0.6867688,-0.40508 -0.9580585,-0.69391 -0.078676,-0.0765 -0.1579557,-0.1527 -0.2368061,-0.22932 0.1767085,-0.17965 0.3387983,-0.35889 0.4877998,-0.53836 0.6035728,0.23878 1.4507412,0.1345 2.4328079,0.10215 -0.22316,-0.0854 -1.0599978,-0.603805 -0.698036,-0.997269 -0.5289011,0.34358 -0.9764703,0.570489 -1.4662369,0.552029 0.9053939,-1.228131 1.2314214,-2.482476 1.3718242,-3.945733 -1.4952072,0.103882 -2.7787314,0.406441 -4.0545944,1.319717 -0.028437,-0.516312 0.2153047,-0.973556 0.5884037,-1.516023 -0.4028738,0.351458 -0.8989983,-0.499015 -0.9784372,-0.724348 -0.060035,1.011122 -0.1926986,1.877141 0.059589,2.490591 -0.1473944,0.118028 -0.294941,0.244828 -0.442915,0.380747 -0.4496384,-0.683426 -1.0257061,-1.340791 -1.157461,-2.175058 -0.06488,-0.402668 0.070501,-0.794537 0.2146216,-1.163651 0.1451442,-0.427878 0.2799613,-0.86211 0.4903793,-1.26374 z m 1.1461104,0.688233 -0.162256,1.054793 0.6743039,0.55229 C 6.5513256,3.5747589 6.7572205,3.5199389 7.0025421,3.1510149 6.4970775,3.1143559 6.0744604,2.5133399 5.8210915,2.1181479 Z m 6.8874965,0.01857 c 0.182789,1.495089 -0.114272,2.49762 -0.640769,3.264725 l -0.05133,0.05443 c -0.0276,-0.03932 -0.05786,-0.07903 -0.09106,-0.119177 -0.577645,-0.555295 -0.406862,-1.436628 0.658053,-2.707793 -1.775016,0.842045 -1.868239,2.513404 -1.569936,3.673848 0.01502,0.05929 0.03632,0.109471 0.06243,0.15168 l -0.02502,0.02683 c -0.319414,0.301572 0.354592,1.232103 1.034414,1.475266 0.427906,0.153124 0.812554,-0.121893 1.096582,-0.508953 1.068619,-1.650838 1.263702,-3.386682 -0.473364,-5.310856 z m -1.911216,4.84498 c -0.375265,0.235507 -0.435326,0.439783 -0.591499,0.653925 l 0.534232,0.688748 1.058663,-0.13439 c -0.38837,-0.263709 -0.978082,-0.702027 -1.001396,-1.208283 z"
     id="path3301" />
</svg>
