<?xml version="1.0" encoding="UTF-8" standalone="no"?>
<svg
   xmlns:dc="http://purl.org/dc/elements/1.1/"
   xmlns:cc="http://creativecommons.org/ns#"
   xmlns:rdf="http://www.w3.org/1999/02/22-rdf-syntax-ns#"
   xmlns:svg="http://www.w3.org/2000/svg"
   xmlns="http://www.w3.org/2000/svg"
   id="svg2"
   viewBox="0 0 14 14"
   height="100%"
   width="100%"
   version="1.1">
  <metadata
     id="metadata8">
    <rdf:RDF>
      <cc:Work
         rdf:about="">
        <dc:format>image/svg+xml</dc:format>
        <dc:type
           rdf:resource="http://purl.org/dc/dcmitype/StillImage" />
        <dc:title></dc:title>
      </cc:Work>
    </rdf:RDF>
  </metadata>
  <defs
     id="defs6" />
  <rect
     style="fill:none;stroke:none;visibility:hidden"
     id="canvas"
     y="0"
     x="0"
     height="14"
     width="14" />
  <path
     id="path3362"
     d="M 4,1 2,13 4,13 6,1 Z m 4,0 2,12 2,0 -2,-12 z"
     style="fill:#000000;fill-opacity:1;fill-rule:evenodd;stroke:none;stroke-opacity:1" />
  <g
     style="display:inline"
     id="layer2">
    <rect
       y="3"
       x="1"
       height="7"
       width="12"
       id="rect3400"
       style="fill:#ffffff;fill-opacity:1;fill-rule:evenodd;stroke:none;stroke-opacity:1" />
  </g>
  <g
     style="display:inline"
     id="layer1">
    <path
       d="M 3,6.75 C 2.4661021,6.75 1.5077151,7.5 1.0000001,7.5 l 0,1.5 C 1.5371841,9 2.5254241,8.25 3,8.25 3.504237,8.25 4.466102,9 5,9 5.475502,9 6.492285,8.25 7,8.25 7.504237,8.25 8.521731,9 9,9 9.504237,9 10.525424,8.25 11,8.25 11.474576,8.25 12.495763,9 13,9 L 13,7.5 C 12.584746,7.5 11.533898,6.720339 11,6.75 10.52173,6.75 9.534722,7.5 9,7.5 8.555085,7.5 7.504237,6.75 7,6.75 6.495763,6.75 5.445903,7.5 5,7.5 4.524498,7.5 3.533898,6.75 3,6.75 Z m 0,-3 C 2.4661021,3.75 1.5077151,4.5 1.0000001,4.5 l 0,1.5 C 1.5371841,6 2.5254241,5.25 3,5.25 3.504237,5.25 4.466102,6 5,6 5.475502,6 6.492285,5.25 7,5.25 7.504237,5.25 8.521731,6 9,6 9.504237,6 10.525424,5.25 11,5.25 11.474576,5.25 12.495763,6 13,6 L 13,4.5 C 12.584746,4.5 11.533898,3.720339 11,3.75 10.52173,3.75 9.534722,4.5 9,4.5 8.555085,4.5 7.504237,3.75 7,3.75 6.495763,3.75 5.445903,4.5 5,4.5 4.524498,4.5 3.533898,3.75 3,3.75 Z"
       style="color:#000000;fill:#000000;fill-opacity:1"
       id="ford" />
  </g>
</svg>
