<?xml version="1.0" encoding="UTF-8" standalone="no"?>
<svg
   xmlns:dc="http://purl.org/dc/elements/1.1/"
   xmlns:cc="http://creativecommons.org/ns#"
   xmlns:rdf="http://www.w3.org/1999/02/22-rdf-syntax-ns#"
   xmlns:svg="http://www.w3.org/2000/svg"
   xmlns="http://www.w3.org/2000/svg"
   id="svg2"
   viewBox="0 0 14 14"
   height="100%"
   width="100%"
   version="1.1">
  <metadata
     id="metadata8">
    <rdf:RDF>
      <cc:Work
         rdf:about="">
        <dc:format>image/svg+xml</dc:format>
        <dc:type
           rdf:resource="http://purl.org/dc/dcmitype/StillImage" />
        <dc:title></dc:title>
      </cc:Work>
    </rdf:RDF>
  </metadata>
  <defs
     id="defs6" />
  <rect
     style="fill:none;stroke:none;visibility:hidden"
     id="canvas"
     y="0"
     x="0"
     height="14"
     width="14" />
  <path
     d="M 3,6.75 C 2.4661017,6.75 1.5077148,7.5 1,7.5 L 1,9 C 1.5371839,9 2.5254237,8.25 3,8.25 3.5042373,8.25 4.4661017,9 5,9 5.4755023,9 6.4922852,8.25 7,8.25 7.5042373,8.25 8.5217305,9 9,9 9.5042373,9 10.525424,8.25 11,8.25 11.474576,8.25 12.495763,9 13,9 L 13,7.5 C 12.584746,7.5 11.533898,6.720339 11,6.75 10.52173,6.75 9.5347216,7.5 9,7.5 8.5550847,7.5 7.5042373,6.75 7,6.75 6.4957627,6.75 5.4459029,7.5 5,7.5 4.5244977,7.5 3.5338983,6.75 3,6.75 Z m 0,3 C 2.4661017,9.75 1.5077148,10.5 1,10.5 L 1,12 c 0.5371839,0 1.5254237,-0.75 2,-0.75 0.5042373,0 1.4661017,0.75 2,0.75 0.4755023,0 1.4922852,-0.75 2,-0.75 0.5042373,0 1.5217305,0.75 2,0.75 0.5042373,0 1.525424,-0.75 2,-0.75 0.474576,0 1.495763,0.75 2,0.75 l 0,-1.5 C 12.584746,10.5 11.533898,9.720339 11,9.75 10.52173,9.75 9.5347216,10.5 9,10.5 8.5550847,10.5 7.5042373,9.75 7,9.75 6.4957627,9.75 5.4459029,10.5 5,10.5 4.5244977,10.5 3.5338983,9.75 3,9.75 Z M 1,3 4,4 6,6 1,6 Z m 12,0 -3,1 -2,2 5,0 z"
     style="fill:#000000;fill-opacity:1;fill-rule:evenodd;stroke:none;stroke-opacity:1"
     id="path4344-9" />
</svg>
