<?xml version="1.0" encoding="UTF-8" standalone="no"?>
<svg
   xmlns:dc="http://purl.org/dc/elements/1.1/"
   xmlns:cc="http://creativecommons.org/ns#"
   xmlns:rdf="http://www.w3.org/1999/02/22-rdf-syntax-ns#"
   xmlns:svg="http://www.w3.org/2000/svg"
   xmlns="http://www.w3.org/2000/svg"
   id="svg4"
   viewBox="0 0 16 16"
   height="16"
   width="16"
   version="1.1">
  <metadata
     id="metadata10">
    <rdf:RDF>
      <cc:Work
         rdf:about="">
        <dc:format>image/svg+xml</dc:format>
        <dc:type
           rdf:resource="http://purl.org/dc/dcmitype/StillImage" />
        <dc:title></dc:title>
      </cc:Work>
    </rdf:RDF>
  </metadata>
  <defs
     id="defs8" />
  <rect
     style="visibility:hidden;fill:none;stroke:none"
     id="canvas"
     y="0"
     x="0"
     height="16"
     width="16" />
  <path
     style="fill:#88b78e;fill-opacity:1"
     id="muslim"
     d="M 8.2857128,3.9999994 C 5.8639887,3.9999994 4,5.9571995 4,8.4999997 4,11.042801 5.8639887,13 8.2857128,13 9.6397568,13 11.052794,12.512726 11.857138,11.500001 11.33157,11.85925 10.38814,12.25 9.7142838,12.25 c -1.8519061,0 -3.571427,-1.805475 -3.571427,-3.7500003 0,-1.9445251 1.7195209,-3.75 3.571427,-3.75 0.6738562,0 1.6172862,0.3908248 2.1428542,0.7499999 C 11.052794,4.4873495 9.6397568,3.9999994 8.2857128,3.9999994 Z M 11.5,6.2499996 l -0.714286,1.5 H 8.9999986 L 10.428573,8.8749995 9.7142838,10.75 11.5,9.6249997 13.285713,10.75 12.571424,8.8749995 14,7.7499996 h -1.785715 z" />
</svg>
