<?xml version="1.0" encoding="UTF-8" standalone="no"?>
<svg
   xmlns:dc="http://purl.org/dc/elements/1.1/"
   xmlns:cc="http://creativecommons.org/ns#"
   xmlns:rdf="http://www.w3.org/1999/02/22-rdf-syntax-ns#"
   xmlns:svg="http://www.w3.org/2000/svg"
   xmlns="http://www.w3.org/2000/svg"
   version="1.1"
   width="32"
   height="32"
   viewBox="0 0 32 32"
   id="svg4">
  <metadata
     id="metadata10">
    <rdf:RDF>
      <cc:Work
         rdf:about="">
        <dc:format>image/svg+xml</dc:format>
        <dc:type
           rdf:resource="http://purl.org/dc/dcmitype/StillImage" />
        <dc:title></dc:title>
      </cc:Work>
    </rdf:RDF>
  </metadata>
  <defs
     id="defs8" />
  <rect
     width="32"
     height="32"
     x="0"
     y="0"
     id="canvas"
     style="visibility:hidden;fill:none;stroke:none" />
  <path
     d="M 9,4 C 6.093931,4 3.8571446,6.3921333 3.8571446,9.5 3.8571446,12.607867 6.093931,15 9,15 c 1.624853,0 3.320498,-0.595556 4.285711,-1.833332 -0.630682,0.439082 -1.762798,0.916665 -2.571425,0.916665 -2.2222882,0 -4.2857132,-2.206691 -4.2857132,-4.583333 0,-2.3766416 2.063425,-4.583333 4.2857132,-4.583333 0.808627,0 1.940743,0.4776748 2.571425,0.9166665 C 12.320498,4.5956501 10.624853,4 9,4 Z m 3.857145,2.7500001 -0.857143,1.8333333 H 9.8571429 L 11.571433,9.9583331 10.714286,12.25 12.857145,10.875 15.000001,12.25 14.142854,9.9583331 15.857145,8.5833334 h -2.142858 z"
     id="muslim"
     style="fill:#88b78e;fill-opacity:1" />
</svg>
