<?xml version="1.0" encoding="UTF-8" standalone="no"?>
<svg
   xmlns:dc="http://purl.org/dc/elements/1.1/"
   xmlns:cc="http://creativecommons.org/ns#"
   xmlns:rdf="http://www.w3.org/1999/02/22-rdf-syntax-ns#"
   xmlns:svg="http://www.w3.org/2000/svg"
   xmlns="http://www.w3.org/2000/svg"
   id="svg4"
   viewBox="0 0 32 32"
   height="32"
   width="32"
   version="1.1">
  <metadata
     id="metadata10">
    <rdf:RDF>
      <cc:Work
         rdf:about="">
        <dc:format>image/svg+xml</dc:format>
        <dc:type
           rdf:resource="http://purl.org/dc/dcmitype/StillImage" />
        <dc:title></dc:title>
      </cc:Work>
    </rdf:RDF>
  </metadata>
  <defs
     id="defs8" />
  <rect
     style="visibility:hidden;fill:none;stroke:none"
     id="canvas"
     y="0"
     x="0"
     height="32"
     width="32" />
  <path
     d="M 10.528645,4.03582 8.6666663,7.0090344 H 5 L 6.8333331,10.009034 5,13.009035 h 3.6666663 l 1.8619787,3.026785 1.833334,-3.026785 H 16 L 14.195312,10.009034 16,7.0090344 h -3.638021 z m 0,2.0892857 0.544271,0.8839287 H 9.9843746 Z m -3.5807285,1.875 H 8.0651038 L 7.4921872,8.9108201 Z m 2.434895,0 h 2.2916675 l 1.203125,2.0089283 -1.203125,2.008929 H 9.3828115 L 8.1796871,10.009034 Z m 3.5807305,0 h 1.145833 l -0.572916,0.9375001 z m 0.572917,3.0803573 0.572916,0.9375 h -1.145833 z m -6.0442718,0.02679 0.5729166,0.910715 H 6.9479165 Z m 2.4921874,1.901782 h 1.0885414 l -0.544271,0.883928 z"
     id="jewish"
     style="fill:#88b78e;fill-opacity:1" />
</svg>
