<?xml version="1.0" encoding="UTF-8" standalone="no"?>
<svg
   xmlns:dc="http://purl.org/dc/elements/1.1/"
   xmlns:cc="http://creativecommons.org/ns#"
   xmlns:rdf="http://www.w3.org/1999/02/22-rdf-syntax-ns#"
   xmlns:svg="http://www.w3.org/2000/svg"
   xmlns="http://www.w3.org/2000/svg"
   id="svg2"
   viewBox="0 0 14 14"
   height="100%"
   width="100%"
   version="1.1">
  <metadata
     id="metadata8">
    <rdf:RDF>
      <cc:Work
         rdf:about="">
        <dc:format>image/svg+xml</dc:format>
        <dc:type
           rdf:resource="http://purl.org/dc/dcmitype/StillImage" />
        <dc:title></dc:title>
      </cc:Work>
    </rdf:RDF>
  </metadata>
  <defs
     id="defs6" />
  <rect
     style="fill:none;stroke:none;visibility:hidden"
     id="canvas"
     y="0"
     x="0"
     height="14"
     width="14" />
  <rect
     y="4"
     x="3"
     height="4"
     width="2"
     id="rect5683"
     style="fill:#000000;fill-opacity:1;fill-rule:evenodd;stroke:none;stroke-opacity:1" />
  <circle
     r="1"
     cy="2"
     cx="4"
     id="path5687"
     style="fill:#000000;fill-opacity:1;fill-rule:evenodd;stroke:none;stroke-opacity:1" />
  <path
     id="path5695"
     d="M 2,13 3,8 4,8 3,13 Z"
     style="fill:#000000;fill-opacity:1;fill-rule:evenodd;stroke:none;stroke-opacity:1" />
  <path
     id="path5695-8-2"
     d="M 6,13 5,8 4,8 5,13 Z"
     style="fill:#000000;fill-opacity:1;fill-rule:evenodd;stroke:none;stroke-opacity:1" />
  <path
     style="fill:#000000;fill-opacity:1;fill-rule:evenodd;stroke:none;stroke-opacity:1"
     d="M 3,4 1,7 1,8 3,5 3,4 Z"
     id="path4147" />
  <path
     style="fill:#000000;fill-opacity:1;fill-rule:evenodd;stroke:none;stroke-opacity:1"
     d="M 5,4 7,7 7,8 5,5 5,4 Z"
     id="path4147-6" />
  <path
     id="path4154"
     d="m 11,7 2,0 0,1 -2,0 z"
     style="fill:#000000;fill-opacity:1;fill-rule:evenodd;stroke:none;stroke-opacity:1" />
  <path
     id="path4150"
     d="m 12,13 -1,-3 -1,0 1,3 z"
     style="fill:#000000;fill-opacity:1;fill-rule:evenodd;stroke:none;stroke-opacity:1" />
  <path
     id="path4148"
     d="M 8,13 8.9684329,10.00451 10,10 9,13 Z"
     style="fill:#000000;fill-opacity:1;fill-rule:evenodd;stroke:none;stroke-opacity:1" />
  <path
     id="path4147-6-6"
     d="m 9,7 2,0 0,3 -2,0 z"
     style="fill:#000000;fill-opacity:1;fill-rule:evenodd;stroke:none;stroke-opacity:1" />
  <path
     id="path4154-2"
     d="M 9,7 7,7 7,8 9,8 Z"
     style="fill:#000000;fill-opacity:1;fill-rule:evenodd;stroke:none;stroke-opacity:1" />
  <circle
     r="1"
     cy="5"
     cx="10"
     id="path5687-8"
     style="fill:#000000;fill-opacity:1;fill-rule:evenodd;stroke:none;stroke-opacity:1" />
</svg>
