<?xml version="1.0" encoding="UTF-8" standalone="no"?>
<svg
   xmlns:dc="http://purl.org/dc/elements/1.1/"
   xmlns:cc="http://creativecommons.org/ns#"
   xmlns:rdf="http://www.w3.org/1999/02/22-rdf-syntax-ns#"
   xmlns:svg="http://www.w3.org/2000/svg"
   xmlns="http://www.w3.org/2000/svg"
   version="1.1"
   width="100%"
   height="100%"
   viewBox="0 0 16 16"
   id="svg2">
  <metadata
     id="metadata8">
    <rdf:RDF>
      <cc:Work
         rdf:about="">
        <dc:format>image/svg+xml</dc:format>
        <dc:type
           rdf:resource="http://purl.org/dc/dcmitype/StillImage" />
        <dc:title></dc:title>
      </cc:Work>
    </rdf:RDF>
  </metadata>
  <defs
     id="defs6" />
  <rect
     style="visibility:hidden;fill:none;stroke:none"
     id="rect4174"
     y="0"
     x="0"
     height="16"
     width="16" />
  <path
     style="fill:#734a08;fill-opacity:1;stroke:none"
     d="M 3.5917969,2.8769531 C 3.39328,2.8849528 3.1958998,2.9246486 3,3 l 0,8 c 0,0 3.1875,-0.125 4,3 L 7,5.5996094 C 6.38001,4.2940108 4.9814151,2.8209552 3.5917969,2.8769531 Z M 7,14 C 4.9375,12.40625 2,12 2,12 L 2,4.4003906 1,4 l 0,9 6,2 2,0 6,-2 0,-9 -1,0.4003906 0,8.0000004 L 9,14 C 8.333333,13.74532 7.556181,13.790637 7,14 Z M 13,3 C 11.00748,2.8934496 8.7073046,4.0896818 7.5,5.1191406 l 0,8.4648434 C 8.1166054,13.072545 8.92279,12.451451 10,12 c 0.02349,-0.0098 0,-1 0,-7 l 1,0 0.0092,6.677988 c 0,0 1.655503,-0.444558 1.9908,-0.478769 z"
     id="path4176" />
  <rect
     style="visibility:hidden;fill:none;stroke:none"
     id="rect4184"
     y="0"
     x="20"
     height="16"
     width="16" />
  <path
     id="path4140"
     d="M 10,12 10,16.041096 10.506849,15 11,16 11.0092,11.677988 Z"
     style="opacity:1;fill:#734a08;fill-opacity:1;fill-rule:evenodd;stroke:none;stroke-opacity:1" />
</svg>
