<?xml version="1.0" encoding="UTF-8" standalone="no"?>
<svg
   xmlns:dc="http://purl.org/dc/elements/1.1/"
   xmlns:cc="http://creativecommons.org/ns#"
   xmlns:rdf="http://www.w3.org/1999/02/22-rdf-syntax-ns#"
   xmlns:svg="http://www.w3.org/2000/svg"
   xmlns="http://www.w3.org/2000/svg"
   version="1.1"
   width="100%"
   height="100%"
   viewBox="0 0 16 16"
   id="svg2">
  <metadata
     id="metadata8">
    <rdf:RDF>
      <cc:Work
         rdf:about="">
        <dc:format>image/svg+xml</dc:format>
        <dc:type
           rdf:resource="http://purl.org/dc/dcmitype/StillImage" />
        <dc:title></dc:title>
      </cc:Work>
    </rdf:RDF>
  </metadata>
  <defs
     id="defs6" />
  <rect
     style="fill:none;stroke:none;visibility:hidden"
     id="canvas"
     y="0"
     x="0"
     height="16"
     width="16" />
  <path
     id="parking-motorcycle"
     style="fill:#1a1a1a;fill-rule:evenodd"
     d="m 12.686265,6.8235159 c 0.29929,0.2100571 0.473797,0.4414767 0.558926,0.7348004 0.02797,0.096441 0.02974,0.116247 0.0305,0.3145082 6.74e-4,0.1824775 -0.0013,0.2303319 -0.02287,0.331662 -0.04241,0.1988789 -0.120893,0.4210966 -0.213408,0.6147172 l -0.04065,0.088638 -0.139732,0.00864 c -0.508326,0.02973 -0.917361,0.1326703 -1.272829,0.3230821 -0.762388,0.4083727 -1.241272,1.1756182 -1.478619,2.3645152 l -0.02032,0.09435 -0.099084,0.102933 c -0.054945,0.05578 -0.1289462,0.122894 -0.1651378,0.148676 -0.3289017,0.234183 -0.8009671,0.374318 -1.4709969,0.440309 -0.3007971,0.02968 -0.5023681,0.0355 -1.4735381,0.04575 -0.5694196,0.0061 -1.0383852,0.0139 -1.0416384,0.01717 -0.00312,0.0032 -0.025144,0.0058 -0.048272,0.0058 -0.050418,0 -0.046971,0.02197 -0.017782,-0.240169 C 5.815899,11.813723 5.8108787,11.343576 5.758052,11.003734 5.6062423,10.02613 5.0691458,9.3843582 4.1574839,9.0908713 3.756934,8.9619177 3.4045324,8.915419 2.8033544,8.9050254 l -0.3836281,-0.00864 -0.025403,-0.02859 C 2.2661824,8.7105879 2.2005414,8.470183 2.236807,8.2873906 2.2539513,8.2010654 2.3131497,8.0760643 2.3638409,8.0214907 L 3.4437653,6.7863034 c 2.3414954,-0.00835 2.9664229,0.00427 5.2031123,0.026406 0.1242503,0.032996 0.690159,1.3087067 0.7493379,1.4146142 0.031987,0.057253 0.076368,0.1835844 0.086384,0.2458858 0.00403,0.02531 0.00846,0.045746 0.010149,0.045746 0.015064,0 0.2237716,-0.093484 0.3302753,-0.1486753 C 10.108025,8.2225891 10.465594,7.6438528 10.646397,7.406785 10.818567,5.1257436 7.9970386,-0.92920816 12.686268,6.8235161 Z m -0.109241,2.3530805 c 0.681576,-0.052948 1.352546,0.2215749 1.82922,0.7490968 0.662699,0.7333838 0.818523,1.8298168 0.388708,2.7333468 -0.357388,0.751284 -1.063781,1.258429 -1.854624,1.332365 -0.296776,0.02774 -0.652531,-0.01504 -0.932394,-0.114375 -0.692084,-0.245617 -1.230733,-0.815079 -1.455752,-1.538222 -0.207633,-0.667253 -0.128063,-1.409922 0.213406,-1.998545 0.394008,-0.6791908 1.055827,-1.1049869 1.811436,-1.1636666 z m -9.2756655,0.0057 c 0.2784317,3.059e-4 0.3572445,0.00923 0.5589288,0.062902 0.9094428,0.2421499 1.5870664,1.0369036 1.7174328,2.0128416 0.023999,0.180069 0.024221,0.495889 0,0.66618 -0.1156911,0.813474 -0.589376,1.487336 -1.2906162,1.841294 -0.2224826,0.112296 -0.5020418,0.196904 -0.7545529,0.225875 -0.145146,0.01665 -0.4574927,0.0044 -0.6097397,-0.02288 C 1.9449071,13.792408 1.2034532,13.014299 1.0300778,11.9814 0.99719454,11.786078 0.99321381,11.42768 1.0224046,11.232304 1.1010367,10.70695 1.3236466,10.250489 1.6778745,9.879923 2.02129,9.5206699 2.4266333,9.298179 2.9227578,9.2023091 3.0104299,9.1852111 3.0865076,9.1820201 3.3013049,9.1822981 Z m 9.3620455,0.8262966 c -0.450715,0.02271 -0.85827,0.251053 -1.133099,0.631871 -0.08569,0.118735 -0.200788,0.359763 -0.238815,0.500351 -0.154722,0.572038 -0.0045,1.164114 0.398873,1.575392 0.102173,0.104152 0.253931,0.22211 0.3633,0.280195 0.08542,0.04538 0.261507,0.110084 0.365844,0.134384 0.129194,0.03029 0.423453,0.03938 0.551307,0.01717 0.614338,-0.106658 1.093246,-0.583466 1.234723,-1.223717 0.03248,-0.147014 0.03972,-0.43524 0.01526,-0.586123 -0.131007,-0.807375 -0.787525,-1.3682975 -1.55738,-1.32951 z m -9.3569647,0.0057 c -0.2708973,-5.9e-4 -0.4674357,0.04823 -0.6935787,0.171548 -0.1574748,0.08587 -0.2727562,0.173637 -0.3963301,0.308784 -0.2029527,0.22197 -0.3256264,0.465087 -0.3912506,0.77197 -0.027083,0.126684 -0.031934,0.427329 -0.010149,0.571829 0.055998,0.371448 0.2559059,0.736403 0.5309814,0.969251 0.2117148,0.179213 0.4533369,0.294282 0.7062823,0.33738 0.1252779,0.02141 0.3878205,0.02154 0.5004939,0 0.891898,-0.170472 1.437218,-1.089827 1.1889957,-2.004274 C 4.6138228,10.669054 4.2496557,10.26605 3.8018694,10.100089 3.630415,10.036562 3.5033512,10.014775 3.3064549,10.014316 Z" />
</svg>
