<?xml version="1.0" encoding="UTF-8" standalone="no"?>
<!-- Created with Inkscape (http://www.inkscape.org/) -->

<svg
   xmlns:dc="http://purl.org/dc/elements/1.1/"
   xmlns:cc="http://creativecommons.org/ns#"
   xmlns:rdf="http://www.w3.org/1999/02/22-rdf-syntax-ns#"
   xmlns:svg="http://www.w3.org/2000/svg"
   xmlns="http://www.w3.org/2000/svg"
   xmlns:sodipodi="http://sodipodi.sourceforge.net/DTD/sodipodi-0.dtd"
   xmlns:inkscape="http://www.inkscape.org/namespaces/inkscape"
   version="1.1"
   width="14"
   height="14"
   viewBox="-240 0 0 16"
   id="svg2"
   inkscape:version="0.91 r13725"
   sodipodi:docname="outdoor-14-1.svg">
  <metadata
     id="metadata10">
    <rdf:RDF>
      <cc:Work
         rdf:about="">
        <dc:format>image/svg+xml</dc:format>
        <dc:type
           rdf:resource="http://purl.org/dc/dcmitype/StillImage" />
        <dc:title></dc:title>
      </cc:Work>
    </rdf:RDF>
  </metadata>
  <defs
     id="defs8" />
  <sodipodi:namedview
     pagecolor="#ffffff"
     bordercolor="#666666"
     borderopacity="1"
     objecttolerance="10"
     gridtolerance="10"
     guidetolerance="10"
     inkscape:pageopacity="0"
     inkscape:pageshadow="2"
     inkscape:window-width="1871"
     inkscape:window-height="1056"
     id="namedview6"
     showgrid="true"
     inkscape:object-paths="true"
     inkscape:snap-intersection-paths="true"
     inkscape:object-nodes="true"
     inkscape:snap-smooth-nodes="false"
     inkscape:snap-midpoints="true"
     inkscape:zoom="65.351111"
     inkscape:cx="8"
     inkscape:cy="8"
     inkscape:window-x="49"
     inkscape:window-y="24"
     inkscape:window-maximized="1"
     inkscape:current-layer="svg2">
    <inkscape:grid
       type="xygrid"
       id="grid4138" />
  </sodipodi:namedview>
  <path
     d="m 7,-0.06249999 c -3.8054235,0 -6.96874999,3.10267849 -6.96874999,7.03124999 C 0.03125001,10.897322 3.1945765,14 7,14 10.805424,14 13.96875,10.897321 13.96875,6.96875 13.96875,3.0401785 10.805425,-0.06249999 7,-0.06249999 Z M 7,1 c 3.374278,0 6.03125,2.7176196 6.03125,5.96875 0,3.251131 -2.656972,5.96875 -6.03125,5.96875 -3.3742782,0 -6.03124999,-2.717619 -6.03124999,-5.96875 C 0.96875001,3.7176196 3.6257218,1 7,1 Z"
     id="path4144"
     inkscape:connector-curvature="0" />
  <path
     style="fill:#000000;fill-rule:evenodd;stroke:none;stroke-width:1px;stroke-linecap:butt;stroke-linejoin:miter;stroke-opacity:1;fill-opacity:1"
     d="M 5,7 9,7 7,12 Z"
     id="path4147"
     inkscape:connector-curvature="0" />
  <path
     style="fill:#000000;fill-opacity:1;fill-rule:evenodd;stroke:none;stroke-width:1px;stroke-linecap:butt;stroke-linejoin:miter;stroke-opacity:1"
     d="M 7,2 5,7 9,7 Z m 0,1.6021491 1.2142274,2.9181175 -2.3825489,0 z"
     id="path4149"
     inkscape:connector-curvature="0"
     sodipodi:nodetypes="cccccccc" />
</svg>
