<?xml version="1.0" encoding="UTF-8" standalone="no"?>
<svg
   xmlns:dc="http://purl.org/dc/elements/1.1/"
   xmlns:cc="http://creativecommons.org/ns#"
   xmlns:rdf="http://www.w3.org/1999/02/22-rdf-syntax-ns#"
   xmlns:svg="http://www.w3.org/2000/svg"
   xmlns="http://www.w3.org/2000/svg"
   id="svg2"
   viewBox="-240 0 0 16"
   height="14"
   width="14"
   version="1.1">
  <metadata
     id="metadata10">
    <rdf:RDF>
      <cc:Work
         rdf:about="">
        <dc:format>image/svg+xml</dc:format>
        <dc:type
           rdf:resource="http://purl.org/dc/dcmitype/StillImage" />
        <dc:title></dc:title>
      </cc:Work>
    </rdf:RDF>
  </metadata>
  <defs
     id="defs8" />
  <path
     id="path4149"
     d="M 14 0 L 4 4 L 0 14 L 10 10 L 14 0 z M 12 2 L 9 9 L 7.7070312 7.7070312 A 1 1 0 0 1 6.75 7.96875 A 1 1 0 0 1 6.0351562 7.2636719 A 1 1 0 0 1 6.2910156 6.2929688 L 5 5 L 12 2 z "
     style="fill:#000000;fill-opacity:1;fill-rule:evenodd;stroke:none;stroke-width:1px;stroke-linecap:butt;stroke-linejoin:miter;stroke-opacity:1" />
  <path
     d="M 6.2831059,6.3028179 A 1,1 0 0 1 7.2493837,6.0315953 1,1 0 0 1 7.9644686,6.7358027 1,1 0 0 1 7.7080882,7.706124 L 7,7 Z"
     id="path4291"
     style="fill:#000000;fill-opacity:1;stroke:none;stroke-width:0.1;stroke-miterlimit:4;stroke-dasharray:none;stroke-opacity:1" />
</svg>
