<?xml version="1.0" encoding="UTF-8" standalone="no"?>
<svg
   xmlns:dc="http://purl.org/dc/elements/1.1/"
   xmlns:cc="http://creativecommons.org/ns#"
   xmlns:rdf="http://www.w3.org/1999/02/22-rdf-syntax-ns#"
   xmlns:svg="http://www.w3.org/2000/svg"
   xmlns="http://www.w3.org/2000/svg"
   id="svg2"
   viewBox="0 0 14 14"
   height="100%"
   width="100%"
   version="1.1">
  <defs
     id="defs3053" />
  <metadata
     id="metadata8">
    <rdf:RDF>
      <cc:Work
         rdf:about="">
        <dc:format>image/svg+xml</dc:format>
        <dc:type
           rdf:resource="http://purl.org/dc/dcmitype/StillImage" />
        <dc:title></dc:title>
      </cc:Work>
    </rdf:RDF>
  </metadata>
  <rect
     style="fill:none;stroke:none;visibility:hidden"
     id="canvas"
     y="0"
     x="0"
     height="14"
     width="14" />
  <path
     id="rect4135"
     d="M 2 2 L 2 9 L 12 9 L 12 2 L 2 2 z M 6.2363281 2.7070312 L 7.9160156 2.7070312 L 9.9414062 8.1738281 L 8.5253906 8.1738281 L 8.1796875 7.1777344 L 5.9765625 7.1777344 L 5.6289062 8.1738281 L 4.2109375 8.1738281 L 6.2363281 2.7070312 z M 7.078125 3.9882812 L 6.328125 6.1640625 L 7.8261719 6.1640625 L 7.078125 3.9882812 z "
     style="fill:#000000;fill-opacity:1;fill-rule:evenodd;stroke:none;stroke-opacity:1" />
  <path
     transform="scale(-1,-1)"
     d="M -6,-1 A 1,1 0 0 1 -6.98873,-6.3508334e-5 1,1 0 0 1 -7.999746,-0.97746146 L -7,-1 Z"
     id="path4137"
     style="fill:#000000;fill-opacity:1;fill-rule:evenodd;stroke:none;stroke-opacity:1" />
  <path
     id="path4141"
     d="m 1,14 1,-2 2,0 -1,2 z"
     style="fill:#000000;fill-opacity:1;fill-rule:evenodd;stroke:none;stroke-opacity:1" />
  <path
     id="path4141-8"
     d="m 10,12 1,2 2,0 -1,-2 z"
     style="fill:#000000;fill-opacity:1;fill-rule:evenodd;stroke:none;stroke-opacity:1" />
  <rect
     y="10"
     x="1"
     height="1"
     width="12"
     id="rect4138"
     style="fill:#000000;fill-opacity:1;fill-rule:evenodd;stroke:none;stroke-opacity:1" />
</svg>
