<?xml version="1.0" encoding="UTF-8" standalone="no"?>
<svg
   xmlns:dc="http://purl.org/dc/elements/1.1/"
   xmlns:cc="http://creativecommons.org/ns#"
   xmlns:rdf="http://www.w3.org/1999/02/22-rdf-syntax-ns#"
   xmlns:svg="http://www.w3.org/2000/svg"
   xmlns="http://www.w3.org/2000/svg"
   version="1.1"
   width="100%"
   height="100%"
   viewBox="0 0 14 14"
   id="svg2">
  <defs
     id="defs3053" />
  <metadata
     id="metadata8">
    <rdf:RDF>
      <cc:Work
         rdf:about="">
        <dc:format>image/svg+xml</dc:format>
        <dc:type
           rdf:resource="http://purl.org/dc/dcmitype/StillImage" />
        <dc:title></dc:title>
      </cc:Work>
    </rdf:RDF>
  </metadata>
  <rect
     width="14"
     height="14"
     x="0"
     y="0"
     id="canvas"
     style="fill:none;stroke:none;visibility:hidden" />
  <path
     d="m 2.0000004,3 0,7 L 12,10 12,3 2.0000004,3 Z m 4.2363281,0.7070312 1.6796875,0 2.0253906,5.4667969 -1.4160156,0 -0.3457031,-0.9960937 -2.203125,0 -0.3476563,0.9960937 -1.4179687,0 2.0253906,-5.4667969 z m 0.8417969,1.28125 -0.75,2.1757813 1.4980469,0 L 7.0781254,4.9882812 Z M 8.6951424,11 l 2.0000006,3 2,0 -2,-3 z M 1,14 3,11 5,11 3,14 Z M 7,0 A 1,1 0 0 0 6,1 L 6,2 7,2 8,2 8,1 A 1,1 0 0 0 7,0 Z"
     style="fill:#000000;fill-opacity:1;fill-rule:evenodd;stroke:none;stroke-opacity:1"
     id="rect4135-4" />
</svg>
