<?xml version="1.0" encoding="UTF-8" standalone="no"?>
<svg
   xmlns:dc="http://purl.org/dc/elements/1.1/"
   xmlns:cc="http://creativecommons.org/ns#"
   xmlns:rdf="http://www.w3.org/1999/02/22-rdf-syntax-ns#"
   xmlns:svg="http://www.w3.org/2000/svg"
   xmlns="http://www.w3.org/2000/svg"
   id="svg2"
   viewBox="-240 0 0 16"
   height="15"
   width="14"
   version="1.1">
  <metadata
     id="metadata8">
    <rdf:RDF>
      <cc:Work
         rdf:about="">
        <dc:format>image/svg+xml</dc:format>
        <dc:type
           rdf:resource="http://purl.org/dc/dcmitype/StillImage" />
        <dc:title></dc:title>
      </cc:Work>
    </rdf:RDF>
  </metadata>
  <defs
     id="defs6" />
  <rect
     style="visibility:hidden;fill:none;stroke:none"
     id="canvas"
     y="-1"
     x="0"
     height="16"
     width="16" />
  <path
     style="fill:#000000;fill-opacity:1;stroke:none"
     id="archaeological-site"
     d="M 3,0 C 4,1 4,1.0174102 4,2.5406352 2.4961741,1.2544138 0.539809,2.6011726 0.5,4.25 0.5,5.0919164 0.4683664,5.2351061 1,6 c 0.464621,0.6684787 2.1823438,1.0650576 3,2 0.4054977,1.620605 0.8702743,2.870274 2,4 l 0,1 c -2,0 -2,0 -3,2 l 8,0 C 10,13 10,13 8,13 L 8,12 C 9.195341,11.024249 9.780248,8.8163354 10,8 10.817656,7.0650576 12.535379,6.6684787 13,6 13.531634,5.2351061 13.5,5.0919164 13.5,4.25 12.713819,2 12,1.560711 10,2.679917 10,1 10,1 11,0 Z M 2.3401795,3 C 2.8500162,2.904097 3.0166539,3.1012462 4,4 4.00979,6.8500068 4.015665,5.6771007 4,7 3.6594798,6.6043519 2.0279825,5.9472518 1.8080454,5.6308147 1.1480517,4.4861565 1.2863553,3.5131454 2.3401795,3 Z M 11.816513,3 C 13,3.8063722 13,5 12.313384,5.6308147 11.717444,6.1997283 10.280775,6.5725516 10,7 10,5.1495633 10.052985,4.96875 10,4 10.706958,3.2565511 11,2.7803463 11.816513,3 Z" />
</svg>
