<?xml version="1.0" encoding="UTF-8" standalone="no"?>
<svg
   xmlns:dc="http://purl.org/dc/elements/1.1/"
   xmlns:cc="http://creativecommons.org/ns#"
   xmlns:rdf="http://www.w3.org/1999/02/22-rdf-syntax-ns#"
   xmlns:svg="http://www.w3.org/2000/svg"
   xmlns="http://www.w3.org/2000/svg"
   xml:space="preserve"
   enable-background="new 0 0 580 580"
   viewBox="0 0 14 14"
   height="14"
   width="14"
   y="0px"
   x="0px"
   id="svg2"
   version="1.1"><metadata
     id="metadata13"><rdf:RDF><cc:Work
         rdf:about=""><dc:format>image/svg+xml</dc:format><dc:type
           rdf:resource="http://purl.org/dc/dcmitype/StillImage" /><dc:title></dc:title></cc:Work></rdf:RDF></metadata><defs
     id="defs11" /><path
     style="fill:#000000;fill-opacity:1;fill-rule:evenodd;stroke:none;stroke-opacity:1"
     d="M 14,14 4,14 4,11 14,11 Z"
     id="path3355" /><path
     style="fill:#000000;fill-opacity:1;fill-rule:evenodd;stroke:none;stroke-opacity:1"
     d="m 0,11 1,0 0,3 -1,0 z"
     id="path3357" /><path
     style="fill:#000000;fill-opacity:1;fill-rule:evenodd;stroke:none;stroke-opacity:1"
     d="m 2,11 1,0 0,3 -1,0 z"
     id="path3357-4" /><path
     id="path4787"
     d="M 3,5 4,5 4,6 3,6 Z"
     style="fill:#000000;fill-opacity:1;stroke:none" /><path
     id="path4785"
     d="M 1,5 2,5 2,6 1,6 Z"
     style="fill:#000000;fill-opacity:1;stroke:none" /><path
     id="path4783"
     d="m 1,9 1,0 0,1 -1,0 z"
     style="fill:#000000;fill-opacity:1;stroke:none" /><path
     id="path4781"
     d="m 3,9 1,0 0,1 -1,0 z"
     style="fill:#000000;fill-opacity:1;stroke:none" /><path
     id="path4779"
     d="m 4,7 0.9999999,0 0,1 L 4,8 Z"
     style="fill:#000000;fill-opacity:1;stroke:none" /><path
     id="path4777"
     d="M 2,7 3,7 3,8 2,8 Z"
     style="fill:#000000;fill-opacity:1;stroke:none" /><path
     id="path4775"
     d="M 0,7 1,7 1,8 0,8 Z"
     style="fill:#000000;fill-opacity:1;stroke:none" /><path
     id="path4847"
     d="M 8,8 10,5 7,5 11,1 9,4 12,4 Z"
     style="fill:#000000;fill-rule:evenodd;stroke:none;stroke-width:1px;stroke-linecap:butt;stroke-linejoin:miter;stroke-opacity:1;fill-opacity:1" /></svg>