<?xml version="1.0" encoding="UTF-8" standalone="no"?>
<svg
   xmlns:dc="http://purl.org/dc/elements/1.1/"
   xmlns:cc="http://creativecommons.org/ns#"
   xmlns:rdf="http://www.w3.org/1999/02/22-rdf-syntax-ns#"
   xmlns:svg="http://www.w3.org/2000/svg"
   xmlns="http://www.w3.org/2000/svg"
   id="svg4619"
   height="14"
   width="14"
   version="1.1">
  <defs
     id="defs4621" />
  <metadata
     id="metadata4624">
    <rdf:RDF>
      <cc:Work
         rdf:about="">
        <dc:format>image/svg+xml</dc:format>
        <dc:type
           rdf:resource="http://purl.org/dc/dcmitype/StillImage" />
        <dc:title></dc:title>
      </cc:Work>
    </rdf:RDF>
  </metadata>
  <path
     style="color:#000000;font-style:normal;font-variant:normal;font-weight:normal;font-stretch:normal;font-size:medium;line-height:normal;font-family:Sans;-inkscape-font-specification:Sans;text-indent:0;text-align:start;text-decoration:none;text-decoration-line:none;letter-spacing:normal;word-spacing:normal;text-transform:none;direction:ltr;block-progression:tb;writing-mode:lr-tb;baseline-shift:baseline;text-anchor:start;display:inline;overflow:visible;visibility:visible;fill:#000000;fill-opacity:1;stroke:none;stroke-width:2.00017786;marker:none;enable-background:accumulate"
     id="rect3795"
     d="m 13,3.0000007 -2.999999,0 0,2 1.999999,0 L 12,12 l -9.9609164,0.02096 0,-6.9999993 2,0 0,-2 -3,0 c -0.52360002,9.89e-5 -0.9999,0.4764282 -1,1 l 0,8.9999993 c 10e-5,0.523572 0.47639998,0.999901 1,1 L 13,14 c 0.5236,-9.9e-5 0.9999,-0.476428 1,-1 l 0,-8.9999993 c -0.01392,-0.6613875 -0.411466,-1.0209617 -1,-1 z M 10,6 8,6 8,0 6,0 6,6 4,6 7,11 Z" />
</svg>
